# xmcd
#
# Track frame offsets:
#	150
#	17235
#	26950
#	45775
#	59520
#	69560
#	84273
#	103768
#	114843
#	132665
#
# Disc length: 2078 seconds
#
# Revision: 1
# Processed by: cddbd v1.5.1PL2 Copyright (c) Steve Scherf et al.
# Submitted via: audiograbber 1.83.01
#
DISCID=82081c0a
DTITLE=Spencers - Up Calvary's Hill
DYEAR=1993
DGENRE=Southern Gospel
TTITLE0=Most Of All
TTITLE1=When He Comes Back
TTITLE2=Walking My Lord Up Calvary's Hill
TTITLE3=I've Never Been This Homesick Before
TTITLE4=We Will Win
TTITLE5=I Want To Go There And See
TTITLE6=Come Spring
TTITLE7=Harp On The Willow
TTITLE8=We Have A Savior
TTITLE9=The Altar
EXTD=
EXTT0=
EXTT1=
EXTT2=
EXTT3=
EXTT4=
EXTT5=
EXTT6=
EXTT7=
EXTT8=
EXTT9=
PLAYORDER=
